<svg preserveAspectRatio="none" viewBox="0 0 1281 1024" fill="none" xmlns="http://www.w3.org/2000/svg">
<rect preserveAspectRatio="none" fill="#393E46" fill-opacity="0.1"/>
<rect preserveAspectRatio="none" fill="url(#paint0_radial)"/>
<g opacity="0.1">
<path opacity="0.2" fill-rule="evenodd" clip-rule="evenodd" d="M1281 24.5732L1227.63 61.4328C1174.25 98.2924 1067.5 172.012 960.75 180.203C854 188.394 747.25 131.056 640.5 118.77C533.75 106.483 427 139.247 320.25 126.961C213.5 114.674 106.75 57.3372 53.375 28.6686L2.15456e-05 -1.07458e-05V-1.07458e-05L53.375 -6.07961e-06C106.75 -1.41342e-06 213.5 7.91896e-06 320.25 1.72513e-05C427 2.65837e-05 533.75 3.59161e-05 640.5 4.52485e-05C747.25 5.45809e-05 854 6.39133e-05 960.75 7.32456e-05C1067.5 8.2578e-05 1174.25 9.19104e-05 1227.63 9.65766e-05L1281 0.000101243L1281 24.5732Z" fill="#2F4351"/>
<path fill-rule="evenodd" clip-rule="evenodd" d="M1281 110.444L1227.63 92.0371C1174.25 73.6297 1067.5 36.8149 960.75 23.0093C854 9.20376 747.25 18.4075 640.5 55.2222C533.75 92.037 427 156.463 320.25 174.87C213.5 193.278 106.75 165.667 53.375 151.861L9.47637e-06 138.055L2.15456e-05 -8.19269e-06L53.375 -3.5265e-06C106.75 1.13969e-06 213.5 1.04721e-05 320.25 1.98045e-05C427 2.91368e-05 533.75 3.84692e-05 640.5 4.78016e-05C747.25 5.7134e-05 854 6.64664e-05 960.75 7.57987e-05C1067.5 8.51311e-05 1174.25 9.44635e-05 1227.63 9.91297e-05L1281 0.000103796L1281 110.444Z" fill="#2F4351"/>
<path opacity="0.2" fill-rule="evenodd" clip-rule="evenodd" d="M0 994.225L53.375 949.561C106.75 904.898 213.5 815.572 320.25 775.871C427 736.17 533.75 746.095 640.5 790.759C747.25 835.422 854 914.823 960.75 914.823C1067.5 914.823 1174.25 835.422 1227.62 795.721L1281 756.021V1024H1227.62C1174.25 1024 1067.5 1024 960.75 1024C854 1024 747.25 1024 640.5 1024C533.75 1024 427 1024 320.25 1024C213.5 1024 106.75 1024 53.375 1024H0V994.225Z" fill="#2F4351"/>
<path fill-rule="evenodd" clip-rule="evenodd" d="M0 776L35.2275 796.583C71.5225 817.167 141.977 858.333 213.5 858.333C285.022 858.333 355.477 817.167 427 801.729C498.522 786.292 568.977 796.583 640.5 822.313C712.022 848.042 782.477 889.208 854 894.354C925.522 899.5 995.977 868.625 1067.5 878.917C1139.02 889.208 1209.48 940.667 1245.77 966.396L1281 992.125V1023H1245.77C1209.48 1023 1139.02 1023 1067.5 1023C995.977 1023 925.522 1023 854 1023C782.477 1023 712.022 1023 640.5 1023C568.977 1023 498.522 1023 427 1023C355.477 1023 285.022 1023 213.5 1023C141.977 1023 71.5225 1023 35.2275 1023H0V776Z" fill="#2F4351"/>
</g>
<defs>
<radialGradient id="paint0_radial" cx="0" cy="0" r="1" gradientUnits="userSpaceOnUse" gradientTransform="translate(353.165 460.5) rotate(62.9824) scale(632.53 834.33)">
<stop stop-color="#393E46" stop-opacity="0.01"/>
<stop offset="1" stop-color="#393E46" stop-opacity="0.15"/>
</radialGradient>
</defs>
</svg>
