<svg width="159" height="106" viewBox="0 0 159 106" fill="none" xmlns="http://www.w3.org/2000/svg">
<path d="M43.08 57L39.576 50.64H38.592V57H34.488V40.152H41.376C42.704 40.152 43.832 40.384 44.76 40.848C45.704 41.312 46.408 41.952 46.872 42.768C47.336 43.568 47.568 44.464 47.568 45.456C47.568 46.576 47.248 47.576 46.608 48.456C45.984 49.336 45.056 49.96 43.824 50.328L47.712 57H43.08ZM38.592 47.736H41.136C41.888 47.736 42.448 47.552 42.816 47.184C43.2 46.816 43.392 46.296 43.392 45.624C43.392 44.984 43.2 44.48 42.816 44.112C42.448 43.744 41.888 43.56 41.136 43.56H38.592V47.736ZM59.6723 57.168C58.0882 57.168 56.6322 56.8 55.3042 56.064C53.9922 55.328 52.9442 54.304 52.1602 52.992C51.3922 51.664 51.0082 50.176 51.0082 48.528C51.0082 46.88 51.3922 45.4 52.1602 44.088C52.9442 42.776 53.9922 41.752 55.3042 41.016C56.6322 40.28 58.0882 39.912 59.6723 39.912C61.2563 39.912 62.7043 40.28 64.0163 41.016C65.3443 41.752 66.3843 42.776 67.1363 44.088C67.9043 45.4 68.2882 46.88 68.2882 48.528C68.2882 50.176 67.9043 51.664 67.1363 52.992C66.3682 54.304 65.3282 55.328 64.0163 56.064C62.7043 56.8 61.2563 57.168 59.6723 57.168ZM59.6723 53.424C61.0162 53.424 62.0882 52.976 62.8882 52.08C63.7043 51.184 64.1123 50 64.1123 48.528C64.1123 47.04 63.7043 45.856 62.8882 44.976C62.0882 44.08 61.0162 43.632 59.6723 43.632C58.3122 43.632 57.2242 44.072 56.4082 44.952C55.6082 45.832 55.2082 47.024 55.2082 48.528C55.2082 50.016 55.6082 51.208 56.4082 52.104C57.2242 52.984 58.3122 53.424 59.6723 53.424ZM78.2274 57.168C76.9954 57.168 75.8914 56.968 74.9154 56.568C73.9394 56.168 73.1554 55.576 72.5634 54.792C71.9874 54.008 71.6834 53.064 71.6514 51.96H76.0194C76.0834 52.584 76.2994 53.064 76.6674 53.4C77.0354 53.72 77.5154 53.88 78.1074 53.88C78.7154 53.88 79.1954 53.744 79.5474 53.472C79.8994 53.184 80.0754 52.792 80.0754 52.296C80.0754 51.88 79.9314 51.536 79.6434 51.264C79.3714 50.992 79.0274 50.768 78.6114 50.592C78.2114 50.416 77.6354 50.216 76.8834 49.992C75.7954 49.656 74.9074 49.32 74.2194 48.984C73.5314 48.648 72.9394 48.152 72.4434 47.496C71.9474 46.84 71.6994 45.984 71.6994 44.928C71.6994 43.36 72.2674 42.136 73.4034 41.256C74.5394 40.36 76.0194 39.912 77.8434 39.912C79.6994 39.912 81.1954 40.36 82.3314 41.256C83.4674 42.136 84.0754 43.368 84.1554 44.952H79.7154C79.6834 44.408 79.4834 43.984 79.1154 43.68C78.7474 43.36 78.2754 43.2 77.6994 43.2C77.2034 43.2 76.8034 43.336 76.4994 43.608C76.1954 43.864 76.0434 44.24 76.0434 44.736C76.0434 45.28 76.2994 45.704 76.8114 46.008C77.3234 46.312 78.1234 46.64 79.2114 46.992C80.2994 47.36 81.1794 47.712 81.8514 48.048C82.5394 48.384 83.1314 48.872 83.6274 49.512C84.1234 50.152 84.3714 50.976 84.3714 51.984C84.3714 52.944 84.1234 53.816 83.6274 54.6C83.1474 55.384 82.4434 56.008 81.5154 56.472C80.5874 56.936 79.4914 57.168 78.2274 57.168ZM100.577 40.152V43.44H96.1131V57H92.0091V43.44H87.5451V40.152H100.577ZM108.301 43.44V46.848H113.797V50.016H108.301V53.712H114.517V57H104.197V40.152H114.517V43.44H108.301ZM127.333 57L123.829 50.64H122.845V57H118.741V40.152H125.629C126.957 40.152 128.085 40.384 129.013 40.848C129.957 41.312 130.661 41.952 131.125 42.768C131.589 43.568 131.821 44.464 131.821 45.456C131.821 46.576 131.501 47.576 130.861 48.456C130.237 49.336 129.309 49.96 128.077 50.328L131.965 57H127.333ZM122.845 47.736H125.389C126.141 47.736 126.701 47.552 127.069 47.184C127.453 46.816 127.645 46.296 127.645 45.624C127.645 44.984 127.453 44.48 127.069 44.112C126.701 43.744 126.141 43.56 125.389 43.56H122.845V47.736ZM44.688 66.36C45.664 66.568 46.448 67.056 47.04 67.824C47.632 68.576 47.928 69.44 47.928 70.416C47.928 71.824 47.432 72.944 46.44 73.776C45.464 74.592 44.096 75 42.336 75H34.488V58.152H42.072C43.784 58.152 45.12 58.544 46.08 59.328C47.056 60.112 47.544 61.176 47.544 62.52C47.544 63.512 47.28 64.336 46.752 64.992C46.24 65.648 45.552 66.104 44.688 66.36ZM38.592 64.968H41.28C41.952 64.968 42.464 64.824 42.816 64.536C43.184 64.232 43.368 63.792 43.368 63.216C43.368 62.64 43.184 62.2 42.816 61.896C42.464 61.592 41.952 61.44 41.28 61.44H38.592V64.968ZM41.616 71.688C42.304 71.688 42.832 71.536 43.2 71.232C43.584 70.912 43.776 70.456 43.776 69.864C43.776 69.272 43.576 68.808 43.176 68.472C42.792 68.136 42.256 67.968 41.568 67.968H38.592V71.688H41.616ZM55.9003 58.152V68.232C55.9003 69.24 56.1483 70.016 56.6443 70.56C57.1403 71.104 57.8683 71.376 58.8283 71.376C59.7883 71.376 60.5243 71.104 61.0363 70.56C61.5483 70.016 61.8043 69.24 61.8043 68.232V58.152H65.9083V68.208C65.9083 69.712 65.5883 70.984 64.9483 72.024C64.3083 73.064 63.4443 73.848 62.3563 74.376C61.2843 74.904 60.0843 75.168 58.7563 75.168C57.4283 75.168 56.2363 74.912 55.1803 74.4C54.1403 73.872 53.3163 73.088 52.7083 72.048C52.1003 70.992 51.7963 69.712 51.7963 68.208V58.152H55.9003ZM74.4542 58.152V75H70.3502V58.152H74.4542ZM83.0923 71.832H88.4683V75H78.9883V58.152H83.0923V71.832ZM98.2978 58.152C100.074 58.152 101.626 58.504 102.954 59.208C104.282 59.912 105.306 60.904 106.026 62.184C106.762 63.448 107.13 64.912 107.13 66.576C107.13 68.224 106.762 69.688 106.026 70.968C105.306 72.248 104.274 73.24 102.93 73.944C101.602 74.648 100.058 75 98.2978 75H91.9858V58.152H98.2978ZM98.0338 71.448C99.5858 71.448 100.794 71.024 101.658 70.176C102.522 69.328 102.954 68.128 102.954 66.576C102.954 65.024 102.522 63.816 101.658 62.952C100.794 62.088 99.5858 61.656 98.0338 61.656H96.0898V71.448H98.0338ZM115.087 61.44V64.848H120.583V68.016H115.087V71.712H121.303V75H110.983V58.152H121.303V61.44H115.087ZM134.12 75L130.616 68.64H129.632V75H125.528V58.152H132.416C133.744 58.152 134.872 58.384 135.8 58.848C136.744 59.312 137.448 59.952 137.912 60.768C138.376 61.568 138.608 62.464 138.608 63.456C138.608 64.576 138.288 65.576 137.648 66.456C137.024 67.336 136.096 67.96 134.864 68.328L138.752 75H134.12ZM129.632 65.736H132.176C132.928 65.736 133.488 65.552 133.856 65.184C134.24 64.816 134.432 64.296 134.432 63.624C134.432 62.984 134.24 62.48 133.856 62.112C133.488 61.744 132.928 61.56 132.176 61.56H129.632V65.736Z" fill="#12AAEC"/>
<path d="M-1.23978e-05 0H159C159 0 102 4.5 44.5 31.5C-13 58.5 -1.23978e-05 106 -1.23978e-05 106V0Z" fill="#12AAEC" fill-opacity="0.45"/>
<path d="M0 0H158C158 0 61.5 3.5 35 13C8.5 22.5 0 33 0 33V0Z" fill="#12AAEC"/>
</svg>
